<svg aria-hidden="true" style="position: absolute; width: 0; height: 0; overflow: hidden;" version="1.1" xmlns="http://www.w3.org/2000/svg" xmlns:xlink="http://www.w3.org/1999/xlink">
<defs>
<symbol id="icon-controller-stop" viewBox="0 0 20 20">
<path d="M16 4.995v9.808c0 0.661-0.536 1.197-1.196 1.197h-9.807c-0.551 0-0.997-0.446-0.997-0.997v-9.807c0-0.66 0.536-1.196 1.196-1.196h9.808c0.55 0 0.996 0.446 0.996 0.995z"></path>
</symbol>
<symbol id="icon-email" viewBox="0 0 20 20">
<path d="M14.608 12.172c0 0.84 0.239 1.175 0.864 1.175 1.393 0 2.28-1.775 2.28-4.727 0-4.512-3.288-6.672-7.393-6.672-4.223 0-8.064 2.832-8.064 8.184 0 5.112 3.36 7.896 8.52 7.896 1.752 0 2.928-0.192 4.727-0.792l0.386 1.607c-1.776 0.577-3.674 0.744-5.137 0.744-6.768 0-10.393-3.72-10.393-9.456 0-5.784 4.201-9.72 9.985-9.72 6.024 0 9.215 3.6 9.215 8.016 0 3.744-1.175 6.6-4.871 6.6-1.681 0-2.784-0.672-2.928-2.161-0.432 1.656-1.584 2.161-3.145 2.161-2.088 0-3.84-1.609-3.84-4.848 0-3.264 1.537-5.28 4.297-5.28 1.464 0 2.376 0.576 2.782 1.488l0.697-1.272h2.016v7.057h0.002zM11.657 9.004c0-1.319-0.985-1.872-1.801-1.872-0.888 0-1.871 0.719-1.871 2.832 0 1.68 0.744 2.616 1.871 2.616 0.792 0 1.801-0.504 1.801-1.896v-1.68z"></path>
</symbol>
<symbol id="icon-paper-plane" viewBox="0 0 20 20">
<path d="M18.64 2.634c-0.344 0.121-17.321 6.104-17.656 6.222-0.284 0.1-0.347 0.345-0.010 0.479 0.401 0.161 3.796 1.521 3.796 1.521v0l2.25 0.901c0 0 10.838-7.958 10.984-8.066 0.148-0.108 0.318 0.095 0.211 0.211s-7.871 8.513-7.871 8.513v0.002l-0.452 0.503 0.599 0.322c0 0 4.65 2.504 4.982 2.682 0.291 0.156 0.668 0.027 0.752-0.334 0.099-0.426 2.845-12.261 2.906-12.525 0.079-0.343-0.148-0.552-0.491-0.431zM7 17.162c0 0.246 0.139 0.315 0.331 0.141 0.251-0.229 2.85-2.561 2.85-2.561l-3.181-1.644v4.064z"></path>
</symbol>
<symbol id="icon-skype" viewBox="0 0 20 20">
<path d="M18.671 12.037c0.132-0.623 0.203-1.272 0.203-1.938 0-4.986-3.93-9.029-8.777-9.029-0.511 0-1.012 0.047-1.5 0.133-0.785-0.508-1.712-0.803-2.707-0.803-2.811 0-5.090 2.344-5.090 5.237 0 0.965 0.256 1.871 0.699 2.648-0.116 0.586-0.178 1.194-0.178 1.815 0 4.986 3.93 9.029 8.775 9.029 0.551 0 1.087-0.051 1.607-0.15 0.717 0.396 1.535 0.621 2.406 0.621 2.811 0 5.090-2.344 5.090-5.236 0.001-0.837-0.19-1.626-0.528-2.327zM14.599 14.416c-0.406 0.59-1.006 1.059-1.783 1.391-0.769 0.33-1.692 0.496-2.742 0.496-1.26 0-2.317-0.227-3.143-0.678-0.59-0.328-1.076-0.771-1.445-1.318-0.372-0.555-0.561-1.104-0.561-1.633 0-0.33 0.123-0.617 0.365-0.852 0.24-0.232 0.549-0.352 0.916-0.352 0.301 0 0.562 0.094 0.773 0.277 0.202 0.176 0.375 0.438 0.514 0.773 0.156 0.367 0.326 0.676 0.505 0.92 0.172 0.234 0.42 0.432 0.735 0.586 0.318 0.154 0.748 0.232 1.275 0.232 0.725 0 1.32-0.158 1.768-0.473 0.438-0.309 0.65-0.676 0.65-1.127 0-0.357-0.111-0.637-0.34-0.857-0.238-0.228-0.555-0.408-0.936-0.531-0.399-0.127-0.941-0.266-1.611-0.41-0.91-0.201-1.683-0.439-2.299-0.707-0.63-0.275-1.137-0.658-1.508-1.137-0.375-0.483-0.567-1.092-0.567-1.807 0-0.682 0.2-1.297 0.596-1.828 0.393-0.525 0.965-0.935 1.703-1.217 0.728-0.277 1.596-0.418 2.576-0.418 0.783 0 1.473 0.094 2.047 0.277 0.578 0.186 1.066 0.436 1.449 0.744 0.387 0.311 0.674 0.643 0.854 0.986 0.182 0.35 0.275 0.695 0.275 1.031 0 0.322-0.121 0.615-0.361 0.871-0.24 0.258-0.543 0.387-0.9 0.387-0.324 0-0.58-0.082-0.756-0.242-0.164-0.148-0.336-0.383-0.524-0.717-0.219-0.428-0.484-0.766-0.788-1.002-0.295-0.232-0.788-0.35-1.466-0.35-0.629 0-1.141 0.131-1.519 0.387-0.368 0.249-0.545 0.532-0.545 0.866 0 0.207 0.058 0.379 0.176 0.525 0.125 0.158 0.301 0.295 0.523 0.41 0.23 0.12 0.467 0.214 0.705 0.282 0.244 0.070 0.654 0.172 1.215 0.307 0.711 0.156 1.363 0.332 1.939 0.521 0.585 0.193 1.090 0.43 1.502 0.705 0.42 0.283 0.754 0.645 0.989 1.076 0.237 0.434 0.357 0.969 0.357 1.59 0.001 0.745-0.206 1.422-0.613 2.016z"></path>
</symbol>
<symbol id="icon-mail4" viewBox="0 0 32 32">
<path d="M16 0c-8.837 0-16 7.163-16 16s7.163 16 16 16 16-7.163 16-16-7.163-16-16-16zM8 8h16c0.286 0 0.563 0.061 0.817 0.177l-8.817 10.286-8.817-10.287c0.254-0.116 0.531-0.177 0.817-0.177zM6 22v-12c0-0.042 0.002-0.084 0.004-0.125l5.864 6.842-5.8 5.8c-0.045-0.167-0.069-0.34-0.069-0.517zM24 24h-16c-0.177 0-0.35-0.024-0.517-0.069l5.691-5.691 2.826 3.297 2.826-3.297 5.691 5.691c-0.167 0.045-0.34 0.069-0.517 0.069zM26 22c0 0.177-0.024 0.35-0.069 0.517l-5.8-5.8 5.865-6.842c0.003 0.041 0.004 0.083 0.004 0.125v12z"></path>
</symbol>
<symbol id="icon-telegram" viewBox="0 0 32 32">
<path d="M16 0c-8.838 0-16 7.162-16 16s7.162 16 16 16 16-7.163 16-16-7.163-16-16-16zM23.863 10.969l-2.625 12.369c-0.181 0.881-0.712 1.087-1.45 0.681l-4-2.956-1.919 1.869c-0.225 0.219-0.4 0.4-0.8 0.4-0.519 0-0.431-0.194-0.606-0.688l-1.363-4.475-3.956-1.231c-0.856-0.262-0.862-0.85 0.194-1.269l15.412-5.95c0.7-0.319 1.381 0.169 1.113 1.25z"></path>
</symbol>
<symbol id="icon-skype1" viewBox="0 0 32 32">
<path d="M13.3 1.169c-0.050-0.031-0.106-0.056-0.156-0.081-0.056 0.012-0.106 0.019-0.162 0.031l0.319 0.050z"></path>
<path d="M1.15 13.156c-0.012 0.056-0.019 0.113-0.025 0.162 0.031 0.050 0.050 0.1 0.081 0.15l-0.056-0.313z"></path>
<path d="M30.837 18.831c0.012-0.056 0.019-0.113 0.031-0.169-0.031-0.050-0.050-0.1-0.081-0.15l0.050 0.319z"></path>
<path d="M18.5 30.719c0.050 0.031 0.106 0.056 0.156 0.081 0.056-0.012 0.113-0.019 0.169-0.025l-0.325-0.056z"></path>
<path d="M30.869 18.663c-0.012 0.056-0.019 0.113-0.031 0.169l-0.056-0.325c0.031 0.056 0.056 0.106 0.087 0.156 0.163-0.9 0.25-1.819 0.25-2.738 0-2.037-0.4-4.019-1.188-5.881-0.762-1.8-1.85-3.419-3.238-4.806s-3.006-2.475-4.8-3.237c-1.863-0.788-3.844-1.188-5.881-1.188-0.963 0-1.925 0.088-2.863 0.269 0 0-0.006 0-0.006 0 0.050 0.025 0.106 0.050 0.156 0.081l-0.319-0.050c0.056-0.012 0.106-0.019 0.162-0.031-1.287-0.681-2.731-1.050-4.194-1.050-2.388 0-4.638 0.931-6.325 2.619s-2.619 3.937-2.619 6.325c0 1.519 0.394 3.019 1.125 4.338 0.012-0.056 0.019-0.113 0.025-0.162l0.056 0.319c-0.031-0.050-0.056-0.1-0.081-0.15-0.15 0.856-0.225 1.731-0.225 2.606 0 2.038 0.4 4.019 1.188 5.881 0.763 1.8 1.85 3.413 3.237 4.8s3.006 2.475 4.806 3.238c1.863 0.788 3.844 1.188 5.881 1.188 0.887 0 1.775-0.081 2.644-0.238-0.050-0.031-0.1-0.056-0.156-0.081l0.325 0.056c-0.056 0.012-0.113 0.019-0.169 0.025 1.337 0.756 2.856 1.163 4.4 1.163 2.387 0 4.637-0.931 6.325-2.619s2.619-3.938 2.619-6.325c-0.006-1.519-0.4-3.019-1.137-4.35zM16.069 25.181c-5.369 0-7.769-2.637-7.769-4.619 0-1.012 0.75-1.725 1.781-1.725 2.3 0 1.7 3.3 5.988 3.3 2.194 0 3.406-1.194 3.406-2.413 0-0.731-0.363-1.544-1.806-1.9l-4.775-1.194c-3.844-0.963-4.544-3.044-4.544-5 0-4.056 3.819-5.581 7.406-5.581 3.306 0 7.2 1.825 7.2 4.263 0 1.044-0.906 1.65-1.938 1.65-1.962 0-1.6-2.713-5.55-2.713-1.963 0-3.044 0.887-3.044 2.156s1.55 1.675 2.894 1.981l3.538 0.787c3.869 0.863 4.85 3.125 4.85 5.25 0 3.294-2.531 5.756-7.637 5.756z"></path>
</symbol>
</defs>
</svg>
